<svg xmlns="http://www.w3.org/2000/svg" width="1608" height="1710" viewBox="0 0 1608 1710" role="img" aria-labelledby="figure-title figure-description">
<title id="figure-title">Rovai AI 系统全景架构</title>
<desc id="figure-description">长期队员 × 对等协作 × 原生 Agent Runtime：从用户目标、任务责任到协作成果与长期经验。</desc>
<rect width="1608" height="1710" fill="#fcfdfc"/>
<g font-family="PingFang SC, Microsoft YaHei, Noto Sans CJK SC, sans-serif" fill="#253c31">
<text x="48" y="40" fill="#708078" font-size="12" font-weight="600" letter-spacing="2">ROVAI AI / ARCHITECTURE</text>
<text x="1560" y="40" fill="#708078" font-size="13" text-anchor="end">图 01</text>
<text x="48" y="94" font-size="34" font-weight="600">Rovai AI 系统全景架构</text>
<text x="49" y="130" fill="#708078" font-size="17">长期队员 × 对等协作 × 原生 Agent Runtime：从用户目标、任务责任到协作成果与长期经验。</text>
<path d="M48 151 H1560" stroke="#dce5df" stroke-width="1"/>
</g>
<svg xmlns="http://www.w3.org/2000/svg" viewBox="0 0 1504 1510" x="52" y="174" width="1504" height="1510"><defs><marker id="overview-arrow-527ca9" viewBox="0 0 10 10" refX="8" refY="5" markerWidth="6" markerHeight="6" orient="auto-start-reverse"><path d="M1 1 L8 5 L1 9" fill="none" stroke="#527ca9" stroke-width="1.7"/></marker><marker id="overview-arrow-8064b4" viewBox="0 0 10 10" refX="8" refY="5" markerWidth="6" markerHeight="6" orient="auto-start-reverse"><path d="M1 1 L8 5 L1 9" fill="none" stroke="#8064b4" stroke-width="1.7"/></marker><marker id="overview-arrow-bb842e" viewBox="0 0 10 10" refX="8" refY="5" markerWidth="6" markerHeight="6" orient="auto-start-reverse"><path d="M1 1 L8 5 L1 9" fill="none" stroke="#bb842e" stroke-width="1.7"/></marker><marker id="overview-arrow-3e9274" viewBox="0 0 10 10" refX="8" refY="5" markerWidth="6" markerHeight="6" orient="auto-start-reverse"><path d="M1 1 L8 5 L1 9" fill="none" stroke="#3e9274" stroke-width="1.7"/></marker><marker id="overview-arrow-55966b" viewBox="0 0 10 10" refX="8" refY="5" markerWidth="6" markerHeight="6" orient="auto-start-reverse"><path d="M1 1 L8 5 L1 9" fill="none" stroke="#55966b" stroke-width="1.7"/></marker><marker id="overview-arrow-318f99" viewBox="0 0 10 10" refX="8" refY="5" markerWidth="6" markerHeight="6" orient="auto-start-reverse"><path d="M1 1 L8 5 L1 9" fill="none" stroke="#318f99" stroke-width="1.7"/></marker><marker id="overview-arrow-497fc3" viewBox="0 0 10 10" refX="8" refY="5" markerWidth="6" markerHeight="6" orient="auto-start-reverse"><path d="M1 1 L8 5 L1 9" fill="none" stroke="#497fc3" stroke-width="1.7"/></marker><marker id="overview-arrow-758397" viewBox="0 0 10 10" refX="8" refY="5" markerWidth="6" markerHeight="6" orient="auto-start-reverse"><path d="M1 1 L8 5 L1 9" fill="none" stroke="#758397" stroke-width="1.7"/></marker></defs><g font-family="PingFang SC, Microsoft YaHei, Noto Sans CJK SC, sans-serif"><rect x="18" y="14" width="1468" height="132" rx="15" fill="#f0f5fa" stroke="#b7ccdf" stroke-width="1.5"/><path d="M39 33 V56" stroke="#527ca9" stroke-width="5" stroke-linecap="round"/><text x="55" y="50" font-size="22" font-weight="600" fill="#527ca9" text-anchor="start">01  用户与工作入口</text><text x="1464" y="49" font-size="16" font-weight="400" fill="#617086" text-anchor="end">提供目标与约束 · 参与讨论与验收 · 按需介入</text><rect x="18" y="208" width="1468" height="376" rx="15" fill="#f4f0fa" stroke="#cbbdde" stroke-width="1.5"/><path d="M39 227 V250" stroke="#8064b4" stroke-width="5" stroke-linecap="round"/><text x="55" y="244" font-size="22" font-weight="600" fill="#8064b4" text-anchor="start">02  长期队员与 Camp 协作空间</text><text x="1464" y="243" font-size="16" font-weight="400" fill="#617086" text-anchor="end">Peer 协作 · 轻量 Lead · 持续身份</text><rect x="334" y="262" width="1128" height="299" rx="15" fill="#f4f0fa" stroke="#cbbdde" stroke-width="1.5"/><path d="M355 281 V304" stroke="#8064b4" stroke-width="5" stroke-linecap="round"/><text x="371" y="298" font-size="22" font-weight="600" fill="#8064b4" text-anchor="start">Camp · 本次协作空间</text><text x="1440" y="297" font-size="16" font-weight="400" fill="#617086" text-anchor="end">未指定收件人时由 Default Lead 承接</text><rect x="18" y="644" width="1468" height="318" rx="15" fill="#f3f5f8" stroke="#c8d0db" stroke-width="1.5"/><path d="M39 663 V686" stroke="#758397" stroke-width="5" stroke-linecap="round"/><text x="55" y="680" font-size="22" font-weight="600" fill="#758397" text-anchor="start">03  Rovai Core · 核心领域与执行控制</text><text x="1464" y="679" font-size="16" font-weight="400" fill="#617086" text-anchor="end">Rust · 协作事实与领域操作由 Core 承载</text><rect x="18" y="1040" width="1468" height="202" rx="15" fill="#edf4fd" stroke="#adc6e7" stroke-width="1.5"/><path d="M39 1059 V1082" stroke="#497fc3" stroke-width="5" stroke-linecap="round"/><text x="55" y="1076" font-size="22" font-weight="600" fill="#497fc3" text-anchor="start">04  本机 Coding Agent Runtimes</text><text x="1464" y="1075" font-size="16" font-weight="400" fill="#617086" text-anchor="end">代表性产品与协议 · 按已接入能力适配</text><rect x="18" y="1310" width="1468" height="150" rx="15" fill="#f3f5f8" stroke="#c8d0db" stroke-width="1.5"/><path d="M39 1329 V1352" stroke="#758397" stroke-width="5" stroke-linecap="round"/><text x="55" y="1346" font-size="22" font-weight="600" fill="#758397" text-anchor="start">05  工作资源与外部能力</text><text x="1464" y="1345" font-size="16" font-weight="400" fill="#617086" text-anchor="end">本地工作区与 Runtime 配置保持用户所有</text><path d="M752 146 V208" fill="none" stroke="#527ca9" stroke-width="2" stroke-linecap="round" stroke-linejoin="round"  marker-end="url(#overview-arrow-527ca9)" marker-start="url(#overview-arrow-527ca9)"/><text x="774" y="181" font-size="17" font-weight="400" fill="#527ca9" text-anchor="start">目标输入 / 结果与用户关注</text><path d="M306 395 H334" fill="none" stroke="#8064b4" stroke-width="2" stroke-linecap="round" stroke-linejoin="round"  marker-end="url(#overview-arrow-8064b4)" /><path d="M644 389 H762" fill="none" stroke="#8064b4" stroke-width="2" stroke-linecap="round" stroke-linejoin="round"  marker-end="url(#overview-arrow-8064b4)" marker-start="url(#overview-arrow-8064b4)"/><text x="703" y="372" font-size="17" font-weight="600" fill="#8064b4" text-anchor="middle">A2A</text><path d="M1042 389 H1164" fill="none" stroke="#8064b4" stroke-width="2" stroke-linecap="round" stroke-linejoin="round"  marker-end="url(#overview-arrow-8064b4)" marker-start="url(#overview-arrow-8064b4)"/><text x="1103" y="372" font-size="17" font-weight="600" fill="#8064b4" text-anchor="middle">A2A</text><path d="M500 449 C647 497 1159 497 1304 449" fill="none" stroke="#8064b4" stroke-width="2" stroke-linecap="round" stroke-linejoin="round"  marker-end="url(#overview-arrow-8064b4)" marker-start="url(#overview-arrow-8064b4)"/><text x="902" y="501" font-size="17" font-weight="400" fill="#8064b4" text-anchor="middle">成员之间直接委托、咨询与反馈</text><path d="M900 584 V644" fill="none" stroke="#8064b4" stroke-width="2" stroke-linecap="round" stroke-linejoin="round"  marker-end="url(#overview-arrow-8064b4)" marker-start="url(#overview-arrow-8064b4)"/><text x="922" y="620" font-size="17" font-weight="400" fill="#8064b4" text-anchor="start">显式平台操作 / 协作事实与执行状态</text><path d="M632 931 V1040" fill="none" stroke="#3e9274" stroke-width="2" stroke-linecap="round" stroke-linejoin="round" stroke-dasharray="6 7" marker-end="url(#overview-arrow-3e9274)" /><text x="610" y="1009" font-size="17" font-weight="400" fill="#3e9274" text-anchor="end">Bootstrap + 每次 Run 的动态输入</text><path d="M1112 1040 V931" fill="none" stroke="#318f99" stroke-width="2" stroke-linecap="round" stroke-linejoin="round"  marker-end="url(#overview-arrow-318f99)" /><text x="1090" y="1009" font-size="17" font-weight="400" fill="#318f99" text-anchor="end">CLI 平台工具调用</text><path d="M1352 931 V1040" fill="none" stroke="#497fc3" stroke-width="2" stroke-linecap="round" stroke-linejoin="round"  marker-end="url(#overview-arrow-497fc3)" marker-start="url(#overview-arrow-497fc3)"/><text x="1330" y="984" font-size="17" font-weight="600" fill="#497fc3" text-anchor="end">Fleet / Adapter</text><text x="1330" y="1009" font-size="17" font-weight="400" fill="#497fc3" text-anchor="end">启动 · 输入 · 原生事件</text><path d="M264 1242 V1310" fill="none" stroke="#758397" stroke-width="2" stroke-linecap="round" stroke-linejoin="round"  marker-end="url(#overview-arrow-758397)" marker-start="url(#overview-arrow-758397)"/><text x="286" y="1283" font-size="17" font-weight="400" fill="#758397" text-anchor="start">读写文件与成果</text><path d="M752 1242 V1310" fill="none" stroke="#497fc3" stroke-width="2" stroke-linecap="round" stroke-linejoin="round"  marker-end="url(#overview-arrow-497fc3)" marker-start="url(#overview-arrow-497fc3)"/><text x="774" y="1283" font-size="17" font-weight="400" fill="#497fc3" text-anchor="start">模型请求与响应</text><path d="M1240 1242 V1310" fill="none" stroke="#318f99" stroke-width="2" stroke-linecap="round" stroke-linejoin="round"  marker-end="url(#overview-arrow-318f99)" marker-start="url(#overview-arrow-318f99)"/><text x="1262" y="1283" font-size="17" font-weight="400" fill="#318f99" text-anchor="start">外部工具调用</text><rect x="42" y="67" width="456" height="61" rx="10" fill="#ffffff" stroke="#b7ccdf" stroke-width="1.5"/><text x="59" y="96" font-size="21" font-weight="600" fill="#527ca9" text-anchor="start">桌面工作台</text><text x="59" y="122" font-size="16.5" font-weight="400" fill="#617086" text-anchor="start">React / Electron · Camp、单聊与执行查看</text><rect x="524" y="67" width="456" height="61" rx="10" fill="#ffffff" stroke="#b7ccdf" stroke-width="1.5"/><text x="541" y="96" font-size="21" font-weight="600" fill="#527ca9" text-anchor="start">飞书 / 钉钉渠道</text><text x="541" y="122" font-size="16.5" font-weight="400" fill="#617086" text-anchor="start">渠道消息与队员 Bot · 绑定 Camp 协作</text><rect x="1006" y="67" width="456" height="61" rx="10" fill="#ffffff" stroke="#b7ccdf" stroke-width="1.5"/><text x="1023" y="96" font-size="21" font-weight="600" fill="#527ca9" text-anchor="start">本机自动化入口</text><text x="1023" y="122" font-size="16.5" font-weight="400" fill="#617086" text-anchor="start">用户 CLI / 定时 Automation · 触发已授权工作</text><rect x="42" y="262" width="264" height="299" rx="11" fill="#ffffff" stroke="#cbbdde" stroke-width="1.5"/><text x="60" y="300" font-size="24" font-weight="600" fill="#8064b4" text-anchor="start">AgentProfile</text><text x="60" y="329" font-size="16" font-weight="400" fill="#617086" text-anchor="start">应用级长期队员 · 稳定 Agent ID</text><path d="M60 349 H288" stroke="#cbbdde"/><text x="60" y="379" font-size="17" font-weight="400" fill="#26364b" text-anchor="start">名称 · 团队角色 · 专业职责</text><text x="60" y="410" font-size="17" font-weight="400" fill="#26364b" text-anchor="start">性格底色 · 工作准则</text><text x="60" y="441" font-size="17" font-weight="400" fill="#26364b" text-anchor="start">成长课题 · 自身身份投影</text><rect x="59" y="477" width="230" height="61" rx="7" fill="#f4f0fa" stroke="none" stroke-width="1.5"/><text x="75" y="502" font-size="18" font-weight="600" fill="#8064b4" text-anchor="start">CampMember</text><text x="75" y="525" font-size="15.5" font-weight="400" fill="#617086" text-anchor="start">同一队员，跨 Camp 参与</text><rect x="364" y="321" width="280" height="128" rx="11" fill="#ffffff" stroke="#cbbdde" stroke-width="1.5"/><text x="382" y="353" font-size="23" font-weight="600" fill="#8064b4" text-anchor="start">队员 A</text><rect x="560" y="333" width="66" height="27" rx="6" fill="#f4f0fa" stroke="none" stroke-width="1.5"/><text x="593" y="352" font-size="15" font-weight="600" fill="#8064b4" text-anchor="middle">Peer</text><text x="382" y="386" font-size="17" font-weight="400" fill="#617086" text-anchor="start">独立 Conversation / AgentRun</text><text x="382" y="411" font-size="17" font-weight="400" fill="#617086" text-anchor="start">自身身份 · Runtime 配置</text><text x="382" y="436" font-size="17" font-weight="400" fill="#617086" text-anchor="start">按目标选择同伴与工具</text><rect x="762" y="321" width="280" height="128" rx="11" fill="#ffffff" stroke="#bb842e" stroke-width="2"/><text x="780" y="353" font-size="23" font-weight="600" fill="#8064b4" text-anchor="start">Default Lead</text><rect x="958" y="333" width="66" height="27" rx="6" fill="#fcf5e7" stroke="none" stroke-width="1.5"/><text x="991" y="352" font-size="13" font-weight="600" fill="#bb842e" text-anchor="middle">轻量 Lead</text><text x="780" y="386" font-size="17" font-weight="400" fill="#617086" text-anchor="start">默认承接 · 协调责任与汇总</text><text x="780" y="411" font-size="17" font-weight="400" fill="#617086" text-anchor="start">独立 Conversation / AgentRun</text><text x="780" y="436" font-size="17" font-weight="400" fill="#617086" text-anchor="start">定向委托 · 按需组织 Gather</text><rect x="1164" y="321" width="280" height="128" rx="11" fill="#ffffff" stroke="#cbbdde" stroke-width="1.5"/><text x="1182" y="353" font-size="23" font-weight="600" fill="#8064b4" text-anchor="start">队员 B</text><rect x="1360" y="333" width="66" height="27" rx="6" fill="#f4f0fa" stroke="none" stroke-width="1.5"/><text x="1393" y="352" font-size="15" font-weight="600" fill="#8064b4" text-anchor="middle">Peer</text><text x="1182" y="386" font-size="17" font-weight="400" fill="#617086" text-anchor="start">独立 Conversation / AgentRun</text><text x="1182" y="411" font-size="17" font-weight="400" fill="#617086" text-anchor="start">自身身份 · Runtime 配置</text><text x="1182" y="436" font-size="17" font-weight="400" fill="#617086" text-anchor="start">按目标选择同伴与工具</text><rect x="358" y="519" width="262" height="27" rx="6" fill="#f4f0fa" stroke="#cbbdde" stroke-width="1.5"/><text x="489" y="538" font-size="16" font-weight="400" fill="#8064b4" text-anchor="middle">公共讨论 · CampMessage</text><rect x="634" y="519" width="250" height="27" rx="6" fill="#fcf5e7" stroke="#dfc48e" stroke-width="1.5"/><text x="759" y="538" font-size="16" font-weight="400" fill="#bb842e" text-anchor="middle">可选长期责任 · Task</text><rect x="898" y="519" width="250" height="27" rx="6" fill="#f3f5f8" stroke="#c8d0db" stroke-width="1.5"/><text x="1023" y="538" font-size="16" font-weight="400" fill="#758397" text-anchor="middle">共享成果 · 附件 / 文件引用</text><rect x="1162" y="519" width="276" height="27" rx="6" fill="#eef7f2" stroke="#afd2c1" stroke-width="1.5"/><text x="1300" y="538" font-size="16" font-weight="400" fill="#3e9274" text-anchor="middle">成员名册 · 获授权的公共历史</text><rect x="42" y="708" width="220" height="223" rx="11" fill="#ffffff" stroke="#cbbdde" stroke-width="1.5"/><rect x="42" y="708" width="220" height="44" rx="10" fill="#8064b4" stroke="none" stroke-width="1.5"/><rect x="42" y="738" width="220" height="14" fill="#8064b4"/><text x="59" y="737" font-size="21" font-weight="600" fill="#fff" text-anchor="start">A2A 消息与路由</text><text x="59" y="784" font-size="15" font-weight="600" fill="#8064b4" text-anchor="start">CampMessage · Delivery</text><text x="59" y="825" font-size="17" font-weight="400" fill="#26364b" text-anchor="start">显式收件人 · 独立投递</text><text x="59" y="854" font-size="17" font-weight="400" fill="#26364b" text-anchor="start">Caller Return · 调用来路</text><text x="59" y="883" font-size="17" font-weight="400" fill="#26364b" text-anchor="start">目标队列 · 协作预算</text><rect x="282" y="708" width="220" height="223" rx="11" fill="#ffffff" stroke="#dfc48e" stroke-width="1.5"/><rect x="282" y="708" width="220" height="44" rx="10" fill="#bb842e" stroke="none" stroke-width="1.5"/><rect x="282" y="738" width="220" height="14" fill="#bb842e"/><text x="299" y="737" font-size="21" font-weight="600" fill="#fff" text-anchor="start">协作组织与责任</text><text x="299" y="784" font-size="15" font-weight="600" fill="#bb842e" text-anchor="start">Task · Gather · CampTurn</text><text x="299" y="825" font-size="17" font-weight="400" fill="#26364b" text-anchor="start">目标 · 负责人 · 验收</text><text x="299" y="854" font-size="17" font-weight="400" fill="#26364b" text-anchor="start">并行征集 · 一次汇总</text><text x="299" y="883" font-size="17" font-weight="400" fill="#26364b" text-anchor="start">责任关联 · 多 Run 延续</text><rect x="522" y="708" width="220" height="223" rx="11" fill="#ffffff" stroke="#afd2c1" stroke-width="1.5"/><rect x="522" y="708" width="220" height="44" rx="10" fill="#3e9274" stroke="none" stroke-width="1.5"/><rect x="522" y="738" width="220" height="14" fill="#3e9274"/><text x="539" y="737" font-size="21" font-weight="600" fill="#fff" text-anchor="start">动态上下文</text><text x="539" y="784" font-size="15" font-weight="600" fill="#3e9274" text-anchor="start">Bootstrap · Profile</text><text x="539" y="825" font-size="17" font-weight="400" fill="#26364b" text-anchor="start">自身身份 · 同伴名片</text><text x="539" y="854" font-size="17" font-weight="400" fill="#26364b" text-anchor="start">公共历史 · 完整当前输入</text><text x="539" y="883" font-size="17" font-weight="400" fill="#26364b" text-anchor="start">可见范围 · 输入预算</text><text x="539" y="912" font-size="17" font-weight="400" fill="#26364b" text-anchor="start">ContextManifest · 冻结</text><rect x="762" y="708" width="220" height="223" rx="11" fill="#ffffff" stroke="#bdd4b0" stroke-width="1.5"/><rect x="762" y="708" width="220" height="44" rx="10" fill="#55966b" stroke="none" stroke-width="1.5"/><rect x="762" y="738" width="220" height="14" fill="#55966b"/><text x="779" y="737" font-size="21" font-weight="600" fill="#fff" text-anchor="start">长期记忆</text><text x="779" y="784" font-size="15" font-weight="600" fill="#55966b" text-anchor="start">Hearth · Companion</text><text x="779" y="808" font-size="15" font-weight="600" fill="#55966b" text-anchor="start">Relationship</text><text x="779" y="849" font-size="17" font-weight="400" fill="#26364b" text-anchor="start">用户审核 · 正式晋升</text><text x="779" y="878" font-size="17" font-weight="400" fill="#26364b" text-anchor="start">修订 · 替代 · 退役 · 遗忘</text><text x="779" y="907" font-size="17" font-weight="400" fill="#26364b" text-anchor="start">按 Scope 授权读取</text><rect x="1002" y="708" width="220" height="223" rx="11" fill="#ffffff" stroke="#abd0d4" stroke-width="1.5"/><rect x="1002" y="708" width="220" height="44" rx="10" fill="#318f99" stroke="none" stroke-width="1.5"/><rect x="1002" y="738" width="220" height="14" fill="#318f99"/><text x="1019" y="737" font-size="21" font-weight="600" fill="#fff" text-anchor="start">CLI + Skill Toolkit</text><text x="1019" y="784" font-size="15" font-weight="600" fill="#318f99" text-anchor="start">Skill · CLI · Router</text><text x="1019" y="825" font-size="17" font-weight="400" fill="#26364b" text-anchor="start">Skill 按需提供协作方法</text><text x="1019" y="854" font-size="17" font-weight="400" fill="#26364b" text-anchor="start">rovai CLI 表达平台动作</text><text x="1019" y="883" font-size="17" font-weight="400" fill="#26364b" text-anchor="start">认证 IPC · Run 身份</text><text x="1019" y="912" font-size="17" font-weight="400" fill="#26364b" text-anchor="start">结构化结果 · 原生投影</text><rect x="1242" y="708" width="220" height="223" rx="11" fill="#ffffff" stroke="#adc6e7" stroke-width="1.5"/><rect x="1242" y="708" width="220" height="44" rx="10" fill="#497fc3" stroke="none" stroke-width="1.5"/><rect x="1242" y="738" width="220" height="14" fill="#497fc3"/><text x="1259" y="737" font-size="21" font-weight="600" fill="#fff" text-anchor="start">AgentRun 执行</text><text x="1259" y="784" font-size="15" font-weight="600" fill="#497fc3" text-anchor="start">AgentRun · Runtime Fleet</text><text x="1259" y="825" font-size="17" font-weight="400" fill="#26364b" text-anchor="start">队列准入 · 执行配置</text><text x="1259" y="854" font-size="17" font-weight="400" fill="#26364b" text-anchor="start">Runtime Adapter · 协议</text><text x="1259" y="883" font-size="17" font-weight="400" fill="#26364b" text-anchor="start">模型 / 权限 · 按能力接入</text><text x="1259" y="912" font-size="17" font-weight="400" fill="#26364b" text-anchor="start">原生事件 · 过程与结果</text><rect x="42" y="1099" width="335" height="88" rx="10" fill="#ffffff" stroke="#adc6e7" stroke-width="1.5"/><text x="59" y="1128" font-size="21" font-weight="600" fill="#497fc3" text-anchor="start">Codex</text><text x="59" y="1154" font-size="16.5" font-weight="400" fill="#617086" text-anchor="start">app-server</text><text x="59" y="1179" font-size="16.5" font-weight="400" fill="#617086" text-anchor="start">原生 Session · 模型循环 · 工具执行</text><rect x="404" y="1099" width="335" height="88" rx="10" fill="#ffffff" stroke="#adc6e7" stroke-width="1.5"/><text x="421" y="1128" font-size="21" font-weight="600" fill="#497fc3" text-anchor="start">Claude Code</text><text x="421" y="1154" font-size="16.5" font-weight="400" fill="#617086" text-anchor="start">stream-json</text><text x="421" y="1179" font-size="16.5" font-weight="400" fill="#617086" text-anchor="start">原生 Session · 模型循环 · 工具执行</text><rect x="766" y="1099" width="335" height="88" rx="10" fill="#ffffff" stroke="#adc6e7" stroke-width="1.5"/><text x="783" y="1128" font-size="21" font-weight="600" fill="#497fc3" text-anchor="start">ACP 类 Runtime</text><text x="783" y="1154" font-size="16.5" font-weight="400" fill="#617086" text-anchor="start">ACP</text><text x="783" y="1179" font-size="16.5" font-weight="400" fill="#617086" text-anchor="start">原生 Session · 模型循环 · 工具执行</text><rect x="1128" y="1099" width="334" height="88" rx="10" fill="#ffffff" stroke="#adc6e7" stroke-width="1.5"/><text x="1145" y="1128" font-size="21" font-weight="600" fill="#497fc3" text-anchor="start">Pi</text><text x="1145" y="1154" font-size="16.5" font-weight="400" fill="#617086" text-anchor="start">JSONL RPC</text><text x="1145" y="1179" font-size="16.5" font-weight="400" fill="#617086" text-anchor="start">原生 Session · 模型循环 · 工具执行</text><text x="752" y="1220" font-size="18" font-weight="400" fill="#497fc3" text-anchor="middle">同一队员通过配置连接 Runtime；身份与记忆持续存在，原生执行能力由所选 Runtime 提供。</text><rect x="42" y="1367" width="456" height="72" rx="10" fill="#ffffff" stroke="#c8d0db" stroke-width="1.5"/><text x="59" y="1396" font-size="21" font-weight="600" fill="#758397" text-anchor="start">项目工作目录与协作成果</text><text x="59" y="1422" font-size="16.5" font-weight="400" fill="#617086" text-anchor="start">本地文件 / Git · 原生工具读写 · 受管附件交付</text><rect x="524" y="1367" width="456" height="72" rx="10" fill="#ffffff" stroke="#adc6e7" stroke-width="1.5"/><text x="541" y="1396" font-size="21" font-weight="600" fill="#497fc3" text-anchor="start">模型服务与原生配置</text><text x="541" y="1422" font-size="16.5" font-weight="400" fill="#617086" text-anchor="start">所选 Runtime 的模型、Provider 与授权配置</text><rect x="1006" y="1367" width="456" height="72" rx="10" fill="#ffffff" stroke="#abd0d4" stroke-width="1.5"/><text x="1023" y="1396" font-size="21" font-weight="600" fill="#318f99" text-anchor="start">外部 MCP 与工具服务</text><text x="1023" y="1422" font-size="16.5" font-weight="400" fill="#617086" text-anchor="start">按 Runtime 能力投影 · 扩展外部信息与操作</text><rect x="122" y="1484" width="12" height="12" rx="3" fill="#8064b4" stroke="none" stroke-width="1.5"/><text x="143" y="1496" font-size="16" font-weight="400" fill="#617086" text-anchor="start">队员与协作</text><rect x="345" y="1484" width="12" height="12" rx="3" fill="#bb842e" stroke="none" stroke-width="1.5"/><text x="366" y="1496" font-size="16" font-weight="400" fill="#617086" text-anchor="start">任务责任</text><rect x="568" y="1484" width="12" height="12" rx="3" fill="#3e9274" stroke="none" stroke-width="1.5"/><text x="589" y="1496" font-size="16" font-weight="400" fill="#617086" text-anchor="start">上下文与记忆</text><rect x="791" y="1484" width="12" height="12" rx="3" fill="#318f99" stroke="none" stroke-width="1.5"/><text x="812" y="1496" font-size="16" font-weight="400" fill="#617086" text-anchor="start">平台 Toolkit</text><rect x="1014" y="1484" width="12" height="12" rx="3" fill="#497fc3" stroke="none" stroke-width="1.5"/><text x="1035" y="1496" font-size="16" font-weight="400" fill="#617086" text-anchor="start">Runtime 执行</text><rect x="1237" y="1484" width="12" height="12" rx="3" fill="#758397" stroke="none" stroke-width="1.5"/><text x="1258" y="1496" font-size="16" font-weight="400" fill="#617086" text-anchor="start">资源与依赖</text></g></svg>

</svg>
